<svg width="48" height="30" viewBox="0 0 48 30" fill="none" xmlns="http://www.w3.org/2000/svg">
<path d="M4.69331 27.6768C10.7755 15.04 28.6972 -7.59927 45.513 6.65059" stroke="#f54900" stroke-linecap="round"/>
<path d="M4.14178 27.7578C11.4887 12.1378 28.696 -7.59556 45.5118 6.65429" stroke="#f54900" stroke-linecap="round"/>
<path d="M1.56326 20.9226C1.47198 20.662 1.60926 20.3767 1.86988 20.2854C2.1305 20.1942 2.41577 20.3314 2.50705 20.592L1.56326 20.9226ZM4.19764 28.1655L4.32742 28.6484C4.19859 28.683 4.06126 28.6647 3.94599 28.5976C3.83071 28.5304 3.74705 28.42 3.71361 28.2908L4.19764 28.1655ZM11.8636 23.949C12.1109 23.8261 12.411 23.9269 12.5339 24.1742C12.6568 24.4215 12.556 24.7216 12.3087 24.8445L11.8636 23.949ZM2.50705 20.592C2.98115 21.9457 3.52543 23.8112 3.94925 25.3299C4.16165 26.091 4.34465 26.7682 4.47457 27.2552C4.53954 27.4987 4.59126 27.6947 4.62676 27.8299C4.64451 27.8976 4.65821 27.95 4.66748 27.9856C4.67212 28.0034 4.67565 28.017 4.67804 28.0261C4.67923 28.0307 4.68013 28.0342 4.68074 28.0365C4.68104 28.0377 4.68127 28.0386 4.68143 28.0392C4.68151 28.0395 4.68157 28.0397 4.68161 28.0399C4.68163 28.04 4.68165 28.0401 4.68166 28.0401C4.68167 28.0401 4.68168 28.0402 4.19764 28.1655C3.71361 28.2908 3.71361 28.2908 3.7136 28.2908C3.71359 28.2908 3.71358 28.2907 3.71356 28.2907C3.71353 28.2905 3.71348 28.2903 3.71341 28.2901C3.71327 28.2895 3.71305 28.2887 3.71276 28.2876C3.71219 28.2854 3.71132 28.282 3.71016 28.2776C3.70785 28.2687 3.70438 28.2553 3.69981 28.2378C3.69067 28.2027 3.67712 28.1509 3.65953 28.0838C3.62433 27.9497 3.57296 27.755 3.50837 27.513C3.37918 27.0287 3.19719 26.3553 2.98605 25.5987C2.56279 24.0819 2.02583 22.2433 1.56326 20.9226L2.50705 20.592ZM4.06786 27.6826C5.65136 27.2571 6.40551 26.9166 7.34626 26.3964C8.30451 25.8666 9.49022 25.1286 11.8636 23.949L12.3087 24.8445C9.96094 26.0113 8.82471 26.7216 7.83015 27.2716C6.81808 27.8312 5.98855 28.2019 4.32742 28.6484L4.06786 27.6826Z" fill="#f54900"/>
<path d="M1.55818 20.9073C1.47535 20.6439 1.62175 20.3632 1.88518 20.2803C2.14861 20.1975 2.4293 20.3439 2.51213 20.6073L1.55818 20.9073ZM4.29485 28.8577L4.48238 29.3212C4.34863 29.3753 4.19802 29.369 4.06926 29.3039C3.94049 29.2388 3.84613 29.1213 3.81041 28.9815L4.29485 28.8577ZM11.8636 23.949C12.1109 23.8261 12.411 23.9269 12.5339 24.1742C12.6568 24.4215 12.556 24.7216 12.3087 24.8445L11.8636 23.949ZM2.51213 20.6073C3.02227 22.2298 3.58934 24.2629 4.02792 25.8864C4.24745 26.699 4.43521 27.4106 4.56811 27.9191C4.63456 28.1733 4.68731 28.3769 4.72347 28.5169C4.74154 28.587 4.75548 28.6411 4.7649 28.6778C4.76961 28.6962 4.77319 28.7102 4.77561 28.7196C4.77681 28.7243 4.77773 28.7279 4.77834 28.7303C4.77865 28.7315 4.77888 28.7324 4.77904 28.733C4.77912 28.7333 4.77918 28.7335 4.77922 28.7337C4.77924 28.7338 4.77926 28.7338 4.77927 28.7339C4.77928 28.7339 4.77928 28.7339 4.29485 28.8577C3.81041 28.9815 3.81041 28.9815 3.8104 28.9815C3.81039 28.9814 3.81038 28.9814 3.81036 28.9813C3.81033 28.9812 3.81027 28.981 3.8102 28.9807C3.81005 28.9801 3.80983 28.9792 3.80954 28.9781C3.80895 28.9758 3.80806 28.9723 3.80688 28.9677C3.80451 28.9585 3.80098 28.9447 3.79632 28.9265C3.787 28.8902 3.77318 28.8365 3.75521 28.7669C3.71928 28.6277 3.66678 28.4251 3.6006 28.1719C3.46824 27.6655 3.28119 26.9566 3.06253 26.1472C2.62476 24.5267 2.06198 22.5096 1.55818 20.9073L2.51213 20.6073ZM4.10731 28.3942C5.11438 27.9868 5.83742 27.4896 6.94286 26.7664C8.04523 26.0452 9.47979 25.1337 11.8636 23.949L12.3087 24.8445C9.97138 26.0061 8.5723 26.8954 7.49032 27.6033C6.41141 28.3091 5.59936 28.8693 4.48238 29.3212L4.10731 28.3942Z" fill="#f54900"/>
</svg>
