<svg xmlns="http://www.w3.org/2000/svg" viewBox="0 0 393.62 363.5"><defs><style>.a{fill:none;stroke:#000;stroke-linecap:round;stroke-linejoin:round;stroke-width:19px;}</style></defs><path class="a" d="M892,764s11-28-5-40-92.5-81.5-92.5-104.5-9-79,18-88,55,19,55,19-28-73-24-88,44-33,58-18,20,38,20,38-4-59,39-56,46,58,46,58,9-59,51-54,42,58,42,58,20-38,47-22,22,73,18,110-2,50-24,76-35,42-36,68-3,49-3,49-32,5-42-4-31-37-31-37-29,36-42,38S892,764,892,764Z" transform="translate(-783.56 -416.89)"/><line class="a" x1="162.94" y1="162.61" x2="162.94" y2="256.61"/><line class="a" x1="222.94" y1="162.61" x2="222.94" y2="256.61"/><line class="a" x1="281.94" y1="162.61" x2="281.94" y2="256.61"/></svg>